#!OML:ASF F:\VICON\USERDATA\INSTALL\rory3\rory3.ASF
:FULLY-SPECIFIED
:DEGREES
2834
root 0.178349 15.2673 -2.69267 8.42744 4.00569 -2.92346
lowerback 38.2033 3.2778 -5.98582
upperback 13.4519 1.53673 -5.55878
thorax -3.72198 0.805786 -3.31986
lowerneck -10.1702 -10.2383 -14.0386
upperneck 6.1394 -14.2102 22.0233
head 6.27773 -6.28974 7.96953
rclavicle 7.95139e-015 -1.43125e-014
rhumerus -50.8275 53.4394 -78.0692
rradius 108.241
rwrist -33.4454
rhand 29.1493 7.26234
rfingers 7.12502
rthumb 52.9406 -12.2676
lclavicle 7.95139e-015 -1.43125e-014
lhumerus 63.4493 -30.2001 29.9701
lradius 33.0357
lwrist 5.09117
lhand 12.763 25.9136
lfingers 7.12502
lthumb 37.742 51.7826
rfemur -37.3043 4.19162 17.4144
rtibia 45.9411
rfoot -12.9113 -10.1607
rtoes -16.3467
lfemur -38.9783 -2.68538 -11.4808
ltibia 44.5342
lfoot -9.04878 -3.26645
ltoes -11.1229
2835
root 0.175292 15.2703 -2.69106 8.39267 3.93498 -3.00208
lowerback 38.2128 3.18894 -5.87857
upperback 13.4342 1.45615 -5.63218
thorax -3.74753 0.773007 -3.42465
lowerneck -10.3341 -10.1694 -13.9889
upperneck 6.36077 -14.133 21.9638
head 6.35011 -6.23465 7.94883
rclavicle 4.77083e-015 2.78299e-014
rhumerus -50.2041 54.1052 -78.3563
rradius 108.001
rwrist -32.1678
rhand 28.9491 7.44329
rfingers 7.12502
rthumb 52.7597 -12.2001
lclavicle 4.77083e-015 2.78299e-014
lhumerus 63.2547 -30.1287 29.9669
lradius 33.0586
lwrist 5.28917
lhand 12.7476 25.9034
lfingers 7.12502
lthumb 37.7275 51.7762
rfemur -37.2452 4.35622 17.5033
rtibia 45.9058
rfoot -12.9073 -10.2622
rtoes -16.3694
lfemur -38.896 -2.64399 -11.3737
ltibia 44.4847
lfoot -9.0492 -3.25637
ltoes -11.1829
2836
root 0.186154 15.2735 -2.69078 8.42841 4.26729 -2.9803
lowerback 38.2522 2.85074 -5.45469
upperback 13.4156 1.18869 -5.70893
thorax -3.7951 0.664443 -3.62991
lowerneck -10.4795 -10.1465 -14.0484
upperneck 6.65194 -14.1261 21.9705
head 6.46866 -6.21151 7.96061
rclavicle -2.8625e-014 7.55382e-014
rhumerus -49.7722 54.9191 -79.0247
rradius 107.907
rwrist -30.1281
rhand 28.548 8.62081
rfingers 7.12502
rthumb 52.3969 -11.2461
lclavicle -2.8625e-014 7.55382e-014
lhumerus 63.2098 -30.182 29.8577
lradius 33.14
lwrist 5.65225
lhand 12.7478 25.9482
lfingers 7.12502
lthumb 37.7276 51.821
rfemur -37.1864 4.0649 17.4867
rtibia 45.8106
rfoot -12.8846 -10.2957
rtoes -16.4126
lfemur -39.0057 -3.01339 -11.3678
ltibia 44.4099
lfoot -8.98428 -3.19261
ltoes -11.3785
2837
root 0.2032 15.2713 -2.69288 8.54586 4.88375 -2.87467
lowerback 38.2703 2.35572 -4.83639
upperback 13.4139 0.808448 -5.77869
thorax -3.82837 0.50954 -3.88753
lowerneck -10.7061 -10.1751 -14.096
upperneck 6.95191 -14.1769 21.9133
head 6.60868 -6.21379 7.93636
rclavicle 2.70347e-014 -7.87187e-014
rhumerus -49.6671 55.7739 -80.1394
rradius 107.927
rwrist -27.8844
rhand 28.22 10.1522
rfingers 7.12502
rthumb 52.0997 -9.89404
lclavicle 2.70347e-014 -7.87187e-014
lhumerus 63.2525 -30.2714 29.8936
lradius 33.2053
lwrist 5.9909
lhand 12.7125 26.0237
lfingers 7.12502
lthumb 37.6943 51.9055
rfemur -37.2272 3.48443 17.3835
rtibia 45.7939
rfoot -12.8975 -10.3236
rtoes -16.4751
lfemur -39.2953 -3.68487 -11.4171
ltibia 44.3464
lfoot -8.8792 -3.07374
ltoes -11.3355
2838
root 0.155532 15.2844 -2.68518 8.0963 3.12888 -2.98943
lowerback 38.7163 3.63714 -6.17008
upperback 13.2454 1.81352 -5.6474
thorax -4.10139 0.936061 -3.44088
lowerneck -10.9172 -10.2572 -14.1019
upperneck 7.18417 -14.2997 21.8616
head 6.73675 -6.25314 7.89516
rclavicle 1.59028e-014 2.8625e-014
rhumerus -49.7739 56.5139 -81.5416
rradius 108.211
rwrist -26.6154
rhand 29.0159 10.959
rfingers 7.12502
rthumb 52.8201 -8.64659
lclavicle 1.59028e-014 2.8625e-014
lhumerus 63.3245 -30.4443 30.0258
lradius 33.3327
lwrist 6.25927
lhand 12.637 26.0776
lfingers 7.12502
lthumb 37.623 51.9784
rfemur -36.8824 5.31759 17.4939
rtibia 45.7249
rfoot -12.74 -10.4152
rtoes -16.492
lfemur -38.1739 -2.07711 -11.3593
ltibia 44.2763
lfoot -9.24186 -3.10942
ltoes -11.3361
2839
root 0.160302 15.2798 -2.68919 8.50106 3.47558 -2.80128
lowerback 38.3888 3.4025 -5.82472
upperback 13.1754 1.68121 -5.70709
thorax -4.08237 0.888059 -3.62345
lowerneck -11.0182 -10.3653 -14.0336
upperneck 7.36133 -14.4641 21.7572
head 6.82546 -6.322 7.81948
rclavicle -9.54166e-015 1.82882e-014
rhumerus -50.0711 57.3478 -83.0645
rradius 108.824
rwrist -26.9382
rhand 30.4358 11.0445
rfingers 7.12502
rthumb 54.0984 -7.72677
lclavicle -9.54166e-015 1.82882e-014
lhumerus 63.3898 -30.7227 30.0173
lradius 33.6268
lwrist 6.63284
lhand 12.6371 26.0217
lfingers 7.12502
lthumb 37.623 51.9225
rfemur -37.3153 4.95767 17.2762
rtibia 45.7446
rfoot -12.7232 -10.4135
rtoes -16.479
lfemur -38.7237 -2.4415 -11.4872
ltibia 44.2271
lfoot -9.11258 -3.02718
ltoes -11.4888
2840
root 0.162178 15.2798 -2.69262 8.81632 3.59872 -2.69575
lowerback 38.0968 3.32704 -5.64391
upperback 13.1323 1.68254 -5.68039
thorax -4.03929 0.893068 -3.67934
lowerneck -11.219 -10.4914 -14.0559
upperneck 7.55072 -14.6206 21.5801
head 6.93371 -6.38684 7.73093
rclavicle -2.06736e-014 -6.52014e-014
rhumerus -50.3434 58.3254 -84.3911
rradius 109.641
rwrist -28.7417
rhand 31.4359 10.9548
rfingers 7.12502
rthumb 54.993 -7.18889
lclavicle -2.06736e-014 -6.52014e-014
lhumerus 63.5862 -30.9471 29.6926
lradius 34.0626
lwrist 7.32744
lhand 12.7891 26.15
lfingers 7.12502
lthumb 37.7667 52.0123
rfemur -37.6483 4.79102 17.1476
rtibia 45.6966
rfoot -12.6949 -10.3731
rtoes -16.1949
lfemur -39.0918 -2.64495 -11.5331
ltibia 44.1775
lfoot -9.01508 -2.87413
ltoes -11.2287
2841
root 0.156224 15.2868 -2.69173 8.77592 3.40809 -2.76631
lowerback 38.1415 3.53294 -5.63849
upperback 13.1144 1.93742 -5.51245
thorax -4.06781 1.00721 -3.59657
lowerneck -11.2942 -10.6074 -14.2236
upperneck 7.55344 -14.741 21.5363
head 6.97928 -6.44685 7.72092
rclavicle 0 5.00937e-014
rhumerus -50.9043 59.2088 -85.7034
rradius 110.732
rwrist -31.4126
rhand 31.2681 10.3422
rfingers 7.12502
rthumb 54.8433 -7.90927
lclavicle 0 5.00937e-014
lhumerus 63.9223 -31.1916 29.4001
lradius 34.5143
lwrist 7.85851
lhand 13.0205 26.4925
lfingers 7.12502
lthumb 37.9852 52.2958
rfemur -37.6038 4.95756 17.2466
rtibia 45.6702
rfoot -12.7015 -10.3504
rtoes -16.0442
lfemur -38.9514 -2.56299 -11.4213
ltibia 44.1476
lfoot -9.06985 -2.75803
ltoes -10.9166
2842
root 0.150931 15.2915 -2.69033 8.60009 3.17431 -2.88681
lowerback 38.3871 3.77756 -5.56933
upperback 13.0797 2.23967 -5.34738
thorax -4.17861 1.14676 -3.57485
lowerneck -11.2478 -10.7245 -14.346
upperneck 7.44478 -14.8744 21.5581
head 6.97438 -6.52009 7.72708
rclavicle 4.77083e-015 1.03368e-014
rhumerus -51.4939 59.7784 -86.8915
rradius 111.866
rwrist -33.7388
rhand 31.0868 9.48174
rfingers 7.12502
rthumb 54.6813 -8.88499
lclavicle 4.77083e-015 1.03368e-014
lhumerus 64.3784 -31.5093 28.9784
lradius 34.9901
lwrist 8.23406
lhand 13.1264 26.7324
lfingers 7.12502
lthumb 38.0852 52.5084
rfemur -37.4184 5.10566 17.4161
rtibia 45.6042
rfoot -12.6908 -10.2519
rtoes -15.6671
lfemur -38.666 -2.4549 -11.2809
ltibia 44.1437
lfoot -9.22178 -2.66869
ltoes -11.3423
2843
root 0.153478 15.2919 -2.69237 8.43792 3.08429 -3.02154
lowerback 38.6916 3.86788 -5.37099
upperback 13.0393 2.39591 -5.20643
thorax -4.31833 1.22196 -3.59565
lowerneck -11.3302 -10.7963 -14.411
upperneck 7.45751 -14.9618 21.5887
head 7.01799 -6.55635 7.7309
rclavicle -3.33958e-014 8.42847e-014
rhumerus -51.4745 60.0396 -87.3964
rradius 112.846
rwrist -34.6847
rhand 31.6438 9.05214
rfingers 7.12502
rthumb 55.1784 -8.95669
lclavicle -3.33958e-014 8.42847e-014
lhumerus 64.7393 -31.7148 28.5104
lradius 35.4939
lwrist 8.68972
lhand 13.1048 26.7891
lfingers 7.12502
lthumb 38.0648 52.5706
rfemur -37.254 5.03619 17.5916
rtibia 45.53
rfoot -12.6037 -10.0125
rtoes -14.5581
lfemur -38.4908 -2.51598 -11.1306
ltibia 44.1741
lfoot -9.34341 -2.52207
ltoes -12.1963
2844
root 0.155518 15.2902 -2.69229 8.31773 3.19903 -3.16715
lowerback 38.8977 3.82073 -5.15269
upperback 13.0245 2.41172 -5.03522
thorax -4.40344 1.2295 -3.53923
lowerneck -11.5403 -10.798 -14.4185
upperneck 7.5778 -14.9565 21.5652
head 7.09005 -6.53701 7.7183
rclavicle 1.43125e-014 2.3059e-014
rhumerus -50.635 60.1076 -87.0299
rradius 113.406
rwrist -33.59
rhand 32.0547 9.42177
rfingers 7.12502
rthumb 55.5441 -8.3159
lclavicle 1.43125e-014 2.3059e-014
lhumerus 64.9986 -31.8271 27.9309
lradius 36.0167
lwrist 9.26701
lhand 12.9074 26.7561
lfingers 7.12502
lthumb 37.8784 52.5883
rfemur -37.0559 4.82651 17.8056
rtibia 45.4605
rfoot -12.5274 -9.88868
rtoes -14.1577
lfemur -38.4412 -2.69216 -10.9519
ltibia 44.2341
lfoot -9.34759 -2.42485
ltoes -12.1834
2845
root 0.151016 15.287 -2.68908 8.29599 3.31447 -3.18367
lowerback 38.9119 3.80146 -5.18027
upperback 13.0156 2.39323 -4.85954
thorax -4.42345 1.21302 -3.33235
lowerneck -11.6929 -10.7868 -14.4423
upperneck 7.64634 -14.9195 21.4853
head 7.12508 -6.51171 7.69559
rclavicle 1.59028e-014 -8.11041e-014
rhumerus -48.845 60.0629 -85.5018
rradius 113.668
rwrist -31.1324
rhand 32.1209 10.3886
rfingers 7.12502
rthumb 55.6029 -7.30481
lclavicle 1.59028e-014 -8.11041e-014
lhumerus 65.108 -31.8282 27.6042
lradius 36.3805
lwrist 9.36158
lhand 12.8947 26.4454
lfingers 7.12502
lthumb 37.8664 52.2808
rfemur -36.9618 4.61683 17.8943
rtibia 45.4008
rfoot -12.5543 -9.88294
rtoes -15.7298
lfemur -38.4764 -2.81685 -10.9007
ltibia 44.3001
lfoot -9.32291 -2.39785
ltoes -11.9948
2846
root 0.14192 15.2882 -2.68547 8.27812 3.26194 -3.25933
lowerback 38.863 3.89111 -5.28783
upperback 12.9938 2.47851 -4.69027
thorax -4.43538 1.24252 -3.12741
lowerneck -11.7462 -10.7569 -14.4008
upperneck 7.67939 -14.8716 21.4073
head 7.12443 -6.48664 7.66793
rclavicle -1.59028e-015 7.39479e-014
rhumerus -46.4867 59.7082 -83.0699
rradius 113.834
rwrist -28.5892
rhand 31.7091 11.8145
rfingers 7.12502
rthumb 55.2366 -6.15164
lclavicle -1.59028e-015 7.39479e-014
lhumerus 65.0859 -31.6917 27.8563
lradius 36.571
lwrist 8.60395
lhand 13.7314 26.3781
lfingers 7.12502
lthumb 38.6563 51.9957
rfemur -36.9275 4.57278 18.0381
rtibia 45.3515
rfoot -12.5878 -9.87754
rtoes -16.7957
lfemur -38.4552 -2.7394 -10.8006
ltibia 44.3701
lfoot -9.3798 -2.43972
ltoes -12.3894
2847
root 0.133616 15.2907 -2.68234 8.35074 3.16582 -3.32582
lowerback 38.6316 3.95477 -5.44389
upperback 12.9799 2.52816 -4.56308
thorax -4.38183 1.25426 -2.92226
lowerneck -11.9173 -10.6618 -14.2556
upperneck 7.92179 -14.7666 21.2995
head 7.18849 -6.41721 7.62089
rclavicle 1.43125e-014 1.03368e-014
rhumerus -43.6333 59.233 -80.0931
rradius 113.838
rwrist -26.9753
rhand 30.6527 12.7817
rfingers 7.12502
rthumb 54.2928 -5.85638
lclavicle 1.43125e-014 1.03368e-014
lhumerus 64.9662 -31.4674 28.2883
lradius 36.6932
lwrist 7.87562
lhand 14.2322 26.5204
lfingers 7.12502
lthumb 39.1284 52.0035
rfemur -37.045 4.56055 18.134
rtibia 45.3586
rfoot -12.612 -9.7092
rtoes -15.9263
lfemur -38.5342 -2.60456 -10.7193
ltibia 44.4784
lfoot -9.49627 -2.46836
ltoes -12.6113
